<?xml version="1.0" standalone="no"?>
<!DOCTYPE svg PUBLIC "-//W3C//DTD SVG 20010904//EN"
 "http://www.w3.org/TR/2001/REC-SVG-20010904/DTD/svg10.dtd">
<svg version="1.0" xmlns="http://www.w3.org/2000/svg"
 width="1500.000000pt" height="1500.000000pt" viewBox="0 0 1500.000000 1500.000000"
 preserveAspectRatio="xMidYMid meet">

<g transform="translate(0.000000,1500.000000) scale(0.100000,-0.100000)"
fill="#000000" stroke="none">
<path d="M6713 12724 c-7 -7 -13 -23 -13 -36 -1 -13 -12 -54 -25 -93 -13 -38
-21 -74 -18 -80 4 -5 3 -7 -2 -3 -4 4 -20 -12 -35 -35 -35 -55 -113 -125 -181
-161 -48 -25 -67 -29 -162 -34 -96 -4 -111 -7 -134 -28 -14 -13 -33 -26 -43
-29 -20 -6 -33 -41 -16 -42 6 -1 25 -6 42 -11 76 -24 249 1 324 46 144 87 215
172 260 312 24 75 26 220 3 194z"/>
<path d="M7285 12530 c-240 -45 -461 -153 -623 -306 -71 -67 -83 -89 -16 -29
70 63 157 113 254 146 85 30 107 33 205 33 124 0 197 -17 285 -66 80 -45 271
-202 379 -312 92 -94 129 -118 118 -75 -4 15 -1 19 11 16 9 -2 16 -9 14 -16
-3 -17 37 5 45 25 4 10 22 14 64 14 32 0 59 4 59 9 0 11 59 35 82 34 10 -1 24
7 31 18 6 10 22 19 35 19 13 0 35 9 49 20 31 24 41 25 45 3 3 -15 6 -15 24 5
12 13 31 24 43 25 13 1 21 8 20 17 -2 28 1 31 21 20 11 -6 20 -19 20 -29 0
-10 9 -21 21 -24 17 -5 14 2 -15 36 -19 23 -39 41 -45 40 -6 -2 -8 4 -5 12 4
9 0 15 -10 15 -9 0 -16 6 -16 13 0 15 -118 115 -191 163 -256 167 -591 232
-904 174z m1102 -386 c-3 -3 -12 -4 -19 -1 -8 3 -5 6 6 6 11 1 17 -2 13 -5z"/>
<path d="M8416 12117 c3 -10 9 -15 12 -12 3 3 0 11 -7 18 -10 9 -11 8 -5 -6z"/>
<path d="M8425 12080 c3 -5 8 -10 11 -10 2 0 4 5 4 10 0 6 -5 10 -11 10 -5 0
-7 -4 -4 -10z"/>
<path d="M8486 12052 c-3 -5 1 -9 9 -9 8 0 12 4 9 9 -3 4 -7 8 -9 8 -2 0 -6
-4 -9 -8z"/>
<path d="M8520 12011 c0 -6 4 -13 10 -16 6 -3 7 1 4 9 -7 18 -14 21 -14 7z"/>
<path d="M7880 11876 c0 -2 7 -9 15 -16 13 -11 14 -10 9 4 -5 14 -24 23 -24
12z"/>
<path d="M10807 11190 c-87 -15 -192 -73 -266 -147 -164 -164 -202 -392 -100
-599 131 -267 431 -368 706 -238 30 15 86 55 123 90 110 104 162 227 162 383
-1 199 -117 382 -297 467 -107 51 -206 64 -328 44z"/>
<path d="M9520 11018 c-20 -96 -77 -263 -121 -349 l-39 -78 60 -83 c178 -249
250 -543 179 -734 -56 -149 -258 -340 -464 -439 -118 -57 -241 -98 -407 -135
-431 -98 -692 -216 -838 -377 -47 -52 -117 -176 -135 -242 l-7 -23 43 26 c260
160 596 236 910 207 120 -11 179 -21 384 -65 185 -41 451 -2 640 92 417 207
686 650 688 1132 0 210 -35 362 -124 545 -131 265 -360 467 -624 550 -62 19
-117 35 -123 35 -5 0 -15 -28 -22 -62z m187 -1100 c-3 -8 -6 -5 -6 6 -1 11 2
17 5 13 3 -3 4 -12 1 -19z"/>
<path d="M5166 10864 c-11 -8 -16 -14 -10 -14 13 0 39 18 34 24 -3 2 -14 -2
-24 -10z"/>
<path d="M5115 10821 c4 -14 0 -23 -15 -31 -11 -6 -20 -7 -20 -1 0 5 7 12 16
15 9 4 14 9 11 12 -21 21 -221 -174 -300 -294 -52 -77 -137 -242 -137 -264 0
-7 -7 -26 -15 -42 -20 -37 -62 -250 -71 -352 -11 -134 34 -417 81 -503 18 -34
18 -27 -1 34 -8 28 -18 93 -21 145 -7 122 13 227 66 335 65 131 130 189 393
349 34 21 55 35 45 32 -10 -3 -25 1 -33 9 -9 9 -11 15 -4 15 7 0 10 68 10 228
0 125 3 251 8 280 7 42 6 52 -5 52 -10 0 -12 -6 -8 -19z m0 -51 c-3 -5 -12
-10 -18 -10 -7 0 -6 4 3 10 19 12 23 12 15 0z"/>
<path d="M4340 9521 c14 -11 29 -21 33 -21 5 0 5 -5 1 -12 -5 -7 -2 -9 9 -5 9
3 18 0 21 -9 3 -8 1 -14 -4 -14 -6 0 -10 -5 -10 -11 0 -5 5 -7 12 -3 8 5 9 2
5 -10 -4 -9 -3 -15 2 -12 5 3 14 -1 21 -9 11 -13 10 -14 -6 -9 -17 6 -18 6 -2
-7 9 -8 26 -34 38 -59 12 -25 26 -53 32 -64 5 -10 15 -58 21 -107 6 -49 14
-89 18 -89 4 0 13 -26 20 -57 9 -46 13 -54 20 -38 11 28 11 -1 -1 -50 -13 -59
-4 -54 13 7 25 86 29 139 17 213 -24 150 -125 302 -245 365 -39 21 -39 21 -15
1z m98 -81 c7 -11 11 -20 9 -20 -2 0 -12 9 -22 20 -10 11 -14 20 -9 20 5 0 15
-9 22 -20z"/>
<path d="M8636 7569 c-96 -23 -228 -122 -290 -218 -28 -44 -70 -151 -62 -159
3 -2 10 14 17 37 6 22 15 38 19 36 7 -5 35 45 32 57 -1 4 4 5 12 2 7 -3 16 2
20 11 3 9 10 14 14 11 5 -3 24 10 42 29 18 19 38 31 43 28 6 -3 7 -1 4 4 -4 6
3 13 15 16 12 4 19 9 16 13 -10 9 17 34 36 34 9 0 16 5 16 10 0 6 8 10 18 11
11 1 9 4 -8 9 -23 7 -21 8 11 9 31 1 38 5 43 26 4 16 13 25 26 25 10 0 22 5
25 10 7 11 4 11 -49 -1z m-21 -29 c3 -5 -1 -10 -10 -10 -9 0 -13 5 -10 10 3 6
8 10 10 10 2 0 7 -4 10 -10z m-145 -120 c0 -5 -4 -10 -10 -10 -5 0 -10 5 -10
10 0 6 5 10 10 10 6 0 10 -4 10 -10z"/>
<path d="M7399 7566 c-1 -3 -2 -12 -3 -18 0 -7 -8 -13 -17 -13 -9 0 -32 -13
-52 -28 -27 -20 -47 -27 -81 -27 -25 0 -46 -4 -46 -10 0 -11 -52 -35 -101 -45
-19 -4 -51 -16 -73 -26 -21 -10 -42 -16 -46 -14 -4 3 -10 -2 -14 -10 -3 -10
-19 -15 -46 -15 -30 0 -39 3 -34 13 4 6 4 9 -1 5 -4 -4 -20 -1 -36 8 -50 25
-31 7 30 -30 165 -101 441 -166 641 -151 210 16 397 62 540 135 62 31 197 122
245 165 l40 36 -55 -39 c-123 -88 -259 -132 -405 -132 -118 0 -256 41 -335 99
-38 28 -117 83 -137 95 -7 4 -14 5 -14 2z m-444 -234 c-3 -3 -11 0 -18 7 -9
10 -8 11 6 5 10 -3 15 -9 12 -12z"/>
<path d="M6925 7380 c27 -12 43 -12 25 0 -8 5 -22 9 -30 9 -10 0 -8 -3 5 -9z"/>
<path d="M7162 5513 l3 -58 53 -3 52 -3 0 60 0 61 -55 0 -56 0 3 -57z"/>
<path d="M5620 5556 c0 -2 -23 -91 -51 -197 -100 -385 -159 -617 -159 -628 0
-7 21 -11 54 -11 l54 0 24 98 24 97 174 0 174 0 25 -95 26 -95 57 -3 57 -3
-24 88 c-13 48 -53 205 -89 348 -37 143 -71 274 -76 290 -5 17 -14 49 -20 73
l-11 42 -119 0 c-66 0 -120 -2 -120 -4z m153 -93 c3 -5 28 -98 56 -208 28
-110 54 -208 57 -217 5 -17 -6 -18 -140 -18 -112 0 -146 3 -146 13 0 12 95
395 105 425 5 13 61 17 68 5z"/>
<path d="M6760 5420 l0 -90 -40 0 -40 0 0 -44 c0 -44 0 -45 38 -48 l37 -3 5
-210 c6 -237 14 -269 77 -299 35 -16 109 -21 176 -10 36 6 37 8 37 50 l0 43
-77 3 c-104 4 -103 1 -103 241 l0 187 90 0 90 0 0 45 0 45 -90 0 -90 0 0 90 0
90 -55 0 -55 0 0 -90z"/>
<path d="M6294 5325 c-94 -42 -143 -188 -125 -373 11 -109 45 -179 103 -213
38 -21 55 -24 143 -24 55 0 117 4 138 8 36 8 37 9 37 50 l0 42 -107 -3 c-100
-4 -111 -2 -142 20 -46 31 -59 74 -60 188 -1 112 10 158 45 191 24 22 35 24
145 27 l120 4 -3 41 c-3 40 -5 42 -43 49 -68 12 -217 7 -251 -7z"/>
<path d="M7565 5324 c-91 -34 -135 -116 -143 -267 -12 -251 74 -356 281 -345
68 3 93 9 130 31 78 46 117 141 117 282 0 167 -53 268 -159 304 -47 15 -178
13 -226 -5z m212 -99 c42 -28 57 -78 57 -200 0 -175 -32 -221 -151 -219 -108
1 -141 40 -150 182 -12 194 37 269 171 257 27 -2 60 -12 73 -20z"/>
<path d="M8300 5331 c-14 -5 -40 -16 -58 -25 -33 -17 -34 -17 -39 4 -5 18 -12
21 -57 18 l-51 -3 -3 -302 -2 -303 55 0 55 0 2 242 3 243 30 14 c17 8 64 17
105 19 131 8 139 -12 140 -315 l0 -203 55 0 55 0 0 213 c0 281 -17 347 -101
389 -36 19 -141 23 -189 9z"/>
<path d="M7167 5323 c-4 -3 -7 -141 -7 -305 l0 -298 58 0 57 0 0 305 0 305
-51 0 c-28 0 -54 -3 -57 -7z"/>
<path d="M9243 5304 c-9 -4 -13 -37 -13 -115 l0 -109 -110 0 -110 0 0 -50 0
-50 110 0 110 0 0 -115 0 -115 50 0 50 0 0 115 0 115 115 0 115 0 0 50 0 50
-115 0 -114 0 -3 113 -3 112 -35 2 c-19 1 -41 0 -47 -3z"/>
<path d="M9040 3935 c0 -122 2 -145 15 -145 13 0 15 23 15 145 0 122 -2 145
-15 145 -13 0 -15 -23 -15 -145z"/>
<path d="M5570 4067 c0 -2 -16 -64 -35 -137 -19 -74 -32 -136 -30 -138 11 -11
33 10 38 37 6 30 7 31 66 31 l60 0 7 -35 c4 -25 11 -35 25 -35 10 0 17 5 14
13 -4 13 -65 259 -65 264 0 2 -18 3 -40 3 -22 0 -40 -1 -40 -3z m72 -98 c10
-35 18 -67 18 -71 0 -5 -22 -8 -50 -8 -27 0 -50 4 -50 8 0 8 25 98 36 130 9
28 28 4 46 -59z"/>
<path d="M6540 4055 c0 -8 7 -15 15 -15 8 0 15 7 15 15 0 8 -7 15 -15 15 -8 0
-15 -7 -15 -15z"/>
<path d="M6980 4055 c0 -8 9 -15 20 -15 11 0 20 7 20 15 0 8 -9 15 -20 15 -11
0 -20 -7 -20 -15z"/>
<path d="M7655 4058 c-10 -26 -65 -243 -65 -255 0 -27 28 -12 36 20 10 31 11
32 69 32 58 0 59 -1 69 -32 8 -31 36 -47 36 -20 -1 6 -15 68 -33 137 l-33 125
-37 3 c-24 2 -39 -1 -42 -10z m69 -83 c9 -35 16 -69 16 -75 0 -5 -20 -10 -45
-10 -34 0 -45 4 -45 15 0 34 34 135 45 135 7 0 20 -29 29 -65z"/>
<path d="M8170 4055 c0 -8 7 -15 15 -15 8 0 15 7 15 15 0 8 -7 15 -15 15 -8 0
-15 -7 -15 -15z"/>
<path d="M8800 3931 c0 -119 2 -141 15 -141 11 0 15 12 15 44 l0 44 56 4 c74
6 99 31 99 98 0 69 -16 82 -109 88 l-76 5 0 -142z m138 97 c7 -7 12 -31 12
-55 0 -50 -20 -66 -78 -61 l-37 3 -3 63 -3 62 49 0 c26 0 53 -5 60 -12z"/>
<path d="M6850 4020 c0 -20 -5 -30 -15 -30 -8 0 -15 -7 -15 -15 0 -8 7 -15 15
-15 12 0 15 -14 15 -66 0 -84 11 -104 55 -104 43 0 49 27 8 32 -27 3 -28 5
-31 71 l-3 67 31 0 c20 0 30 5 30 15 0 10 -10 15 -30 15 -27 0 -30 3 -30 30 0
20 -5 30 -15 30 -10 0 -15 -10 -15 -30z"/>
<path d="M8040 4025 c0 -14 -7 -28 -15 -31 -8 -4 -15 -12 -15 -20 0 -8 7 -14
15 -14 12 0 15 -15 15 -73 0 -82 9 -97 57 -97 41 0 46 27 6 32 -27 3 -28 5
-31 71 l-3 67 31 0 c20 0 30 5 30 15 0 10 -10 15 -30 15 -27 0 -30 3 -30 30 0
20 -5 30 -15 30 -9 0 -15 -9 -15 -25z"/>
<path d="M5787 3989 c-28 -11 -44 -46 -33 -74 5 -15 24 -24 81 -42 20 -6 30
-15 30 -28 0 -17 -8 -20 -58 -23 -75 -4 -73 -26 2 -30 62 -4 91 15 91 58 0 34
-14 46 -62 55 -21 4 -43 14 -50 22 -20 24 17 46 65 38 30 -6 37 -4 37 9 0 9
-8 16 -17 16 -10 0 -27 2 -38 5 -11 2 -32 -1 -48 -6z"/>
<path d="M5985 3991 c-32 -14 -48 -38 -41 -65 6 -23 32 -38 89 -51 22 -4 28
-11 25 -28 -3 -19 -10 -22 -56 -25 -69 -4 -65 -26 5 -30 59 -3 83 13 83 57 0
35 -15 48 -66 59 -26 5 -40 14 -42 26 -6 27 17 37 66 31 34 -5 42 -3 42 9 0
10 -9 16 -22 16 -13 0 -32 2 -43 5 -11 2 -29 0 -40 -4z"/>
<path d="M6183 3986 c-41 -19 -59 -76 -43 -136 12 -45 33 -60 84 -60 58 0 92
53 81 126 -10 67 -61 96 -122 70z m68 -26 c15 -8 19 -21 19 -60 0 -68 -7 -80
-44 -80 -44 0 -56 16 -56 71 0 68 32 95 81 69z"/>
<path d="M6399 3989 c-14 -5 -31 -21 -38 -35 -22 -49 -10 -134 23 -156 6 -4
32 -8 59 -8 35 0 47 4 47 15 0 11 -12 15 -45 15 -52 0 -59 10 -60 78 0 53 24
76 73 68 23 -3 32 -1 32 10 0 8 -6 14 -12 14 -7 0 -22 2 -33 5 -11 2 -32 -1
-46 -6z"/>
<path d="M6663 3993 c-20 -3 -33 -10 -33 -18 0 -11 8 -13 30 -9 47 10 80 -3
80 -30 0 -20 -6 -24 -45 -28 -54 -7 -75 -22 -75 -55 0 -54 14 -63 95 -60 71 2
88 8 65 22 -5 3 -10 39 -10 79 0 47 -5 77 -13 84 -16 14 -55 20 -94 15z m77
-139 l0 -35 -42 3 c-33 2 -44 7 -47 22 -4 25 24 46 61 46 25 0 28 -3 28 -36z"/>
<path d="M7365 3990 c-11 -4 -32 -5 -47 -3 l-28 6 0 -102 c0 -94 1 -101 20
-101 18 0 20 7 20 84 0 81 1 84 25 90 14 4 34 2 45 -4 17 -9 20 -21 20 -91 0
-71 2 -80 18 -77 15 3 17 15 15 88 -2 52 -7 88 -15 96 -19 17 -50 24 -73 14z"/>
<path d="M7894 3988 c-36 -9 -54 -42 -54 -98 0 -78 28 -105 100 -98 54 5 50
28 -4 28 -41 0 -48 3 -57 28 -12 30 -6 89 11 106 6 6 28 11 50 11 24 0 40 4
40 11 0 15 -48 22 -86 12z"/>
<path d="M8305 3988 c-34 -20 -44 -41 -45 -91 0 -48 13 -85 34 -99 21 -15 84
-8 107 11 21 16 24 28 24 80 0 47 -4 65 -20 80 -26 25 -74 34 -100 19z m70
-31 c12 -10 18 -27 19 -58 1 -65 -8 -79 -48 -79 -42 0 -56 20 -56 79 0 61 41
89 85 58z"/>
<path d="M8545 3990 c-11 -4 -30 -6 -42 -3 -23 5 -23 4 -23 -96 0 -83 3 -101
15 -101 12 0 15 16 15 80 0 77 1 81 26 90 57 22 74 0 74 -96 0 -59 3 -74 15
-74 12 0 15 16 15 83 -1 51 -6 88 -13 99 -16 21 -56 30 -82 18z"/>
<path d="M9394 3993 c-37 -7 -59 -40 -48 -71 9 -26 25 -34 87 -47 22 -4 28
-10 25 -28 -3 -19 -10 -22 -55 -25 -38 -2 -53 -7 -53 -18 0 -10 14 -14 54 -14
62 0 86 16 86 59 0 35 -15 48 -66 59 -26 5 -40 14 -42 26 -6 27 17 37 66 31
34 -5 42 -3 42 9 0 9 -8 16 -17 16 -10 0 -27 2 -38 4 -11 2 -30 2 -41 -1z"/>
<path d="M6540 3890 c0 -82 3 -100 15 -100 12 0 15 18 15 100 0 82 -3 100 -15
100 -12 0 -15 -18 -15 -100z"/>
<path d="M6980 3890 c0 -93 1 -100 20 -100 19 0 20 7 20 100 0 93 -1 100 -20
100 -19 0 -20 -7 -20 -100z"/>
<path d="M7090 3968 c-33 -36 -25 -145 14 -170 6 -4 29 -8 52 -8 59 0 79 26
79 100 0 75 -20 100 -81 100 -32 0 -49 -6 -64 -22z m95 -12 c14 -10 19 -26 18
-64 -1 -64 -6 -72 -48 -72 -41 0 -55 20 -55 77 0 42 7 57 30 66 24 9 35 8 55
-7z"/>
<path d="M8170 3890 c0 -82 3 -100 15 -100 12 0 15 18 15 100 0 82 -3 100 -15
100 -12 0 -15 -18 -15 -100z"/>
<path d="M9130 3918 c0 -40 6 -84 13 -98 11 -23 19 -25 80 -26 l67 -1 0 99 c0
79 -3 98 -15 98 -11 0 -15 -18 -17 -82 l-3 -83 -41 -3 -41 -3 -7 47 c-3 26 -6
64 -6 85 0 28 -4 39 -15 39 -12 0 -15 -15 -15 -72z"/>
</g>
</svg>
